<?xml version="1.0" encoding="utf-8"?>
<!-- Generator: Adobe Illustrator 15.0.0, SVG Export Plug-In . SVG Version: 6.00 Build 0)  -->
<!DOCTYPE svg PUBLIC "-//W3C//DTD SVG 1.1//EN" "http://www.w3.org/Graphics/SVG/1.1/DTD/svg11.dtd">
<svg version="1.1" id="Capa_1" xmlns="http://www.w3.org/2000/svg" xmlns:xlink="http://www.w3.org/1999/xlink" x="0px" y="0px"
	 width="231px" height="69.209px" viewBox="0 0 231 69.209" enable-background="new 0 0 231 69.209" xml:space="preserve">
<g>
	<g>
		<g>
			<circle fill="#0066AC" cx="66.248" cy="19.985" r="4.275"/>
			<path fill="#0066AC" d="M89.074,35.969C87.672,29.3,81.741,24.461,74.97,24.461c-7.949,0-14.416,6.512-14.416,14.519
				c0,8.006,6.467,14.521,14.416,14.521c2.476,0,4.922-0.649,7.078-1.88l0.325-0.188l-0.121-0.354
				c-0.432-1.268-1.561-3.479-4.284-4.063l-0.125-0.027l-0.121,0.043c-0.889,0.314-1.815,0.474-2.752,0.474
				c-4.644,0-8.422-3.825-8.422-8.526c0-4.647,3.7-8.29,8.422-8.29c1.806,0,3.533,0.608,4.997,1.754
				c1.373,1.075,2.428,2.587,2.979,4.268h-3.9l-0.054,0.003c-3.171,0.374-4.276,3.086-4.603,4.236l-0.166,0.579h12.208l0.064-0.021
				c0.268-0.081,2.631-0.852,2.815-3.422l0.001-0.026l-0.001-0.024C89.302,37.829,89.246,36.763,89.074,35.969z"/>
		</g>
		<path fill="#0066AC" d="M110.993,40.101c-0.993-1.371-2.638-2.557-4.89-3.519c-2.259-0.964-3.69-1.711-4.374-2.281
			c-0.66-0.549-0.997-1.172-0.997-1.849c0-1.754,0.995-2.608,3.042-2.608c1.317,0,2.486,0.201,3.475,0.598l0.193,0.078l0.186-0.096
			c1.1-0.573,2.563-1.653,3.288-3.554l0.144-0.377l-0.356-0.188c-2.265-1.198-4.708-1.803-7.263-1.803
			c-2.638,0-4.836,0.681-6.534,2.029c-1.729,1.37-2.568,3.229-2.568,5.687c0,3.6,2.244,6.438,6.672,8.434
			c2.034,0.923,3.362,1.695,4.062,2.369c0.679,0.652,1.025,1.506,1.025,2.527c0,1.729-1.144,2.607-3.398,2.607
			c-1.486,0-2.892-0.348-4.176-1.034l-0.19-0.101l-0.199,0.082c-1.357,0.566-2.457,1.556-3.266,2.938l-0.457,1.099l0.347,0.197
			c1.485,0.846,2.729,1.419,3.697,1.703c1.031,0.304,2.418,0.458,4.125,0.458c3.033,0,5.469-0.753,7.24-2.239
			c1.773-1.49,2.673-3.561,2.673-6.15C112.492,43.162,111.986,41.478,110.993,40.101z"/>
		<path fill="#0066AC" d="M51.648,26.313c-1.838-1.274-4.754-1.895-8.914-1.895h-9.87v29.081h5.699V29.942h5.75
			c1.017,0,1.888,0.164,2.587,0.481c0.698,0.32,1.232,0.688,1.588,1.096c0.354,0.407,0.635,0.943,0.833,1.592
			c0.206,0.68,0.328,1.239,0.362,1.664c0.036,0.449,0.053,1,0.053,1.64v17.084h5.699V36.36c0-2.447-0.217-4.46-0.643-5.979
			C54.347,28.802,53.288,27.432,51.648,26.313z"/>
		<rect x="21.321" y="24.415" fill="#0066AC" width="5.908" height="29.084"/>
	</g>
	<g>
		<rect x="122.896" y="24.507" fill="#0066AC" width="0.705" height="28.73"/>
		<g>
			<path fill="#0066AC" d="M157.295,41.797c-0.926,6.664-5.16,11.44-12.096,11.44c-7.316,0-12.441-5.971-12.441-14.174
				c0-6.665,3.582-14.639,12.943-14.639c7.279,0,10.861,5.509,10.979,8.898h-0.771c-0.31-3.968-4.236-8.127-10.207-8.127
				c-9.054,0-12.173,8.165-12.173,13.868c0,6.971,4.238,13.403,11.671,13.403c6.588,0,10.516-4.585,11.325-10.672h0.77V41.797z"/>
			<path fill="#0066AC" d="M161.029,52.582h-0.771v-27.5h11.248c5.701,0,8.281,2.271,8.396,7.047
				c0.115,3.659-2.041,6.203-5.893,7.088v0.078c4.66,0.616,5.432,3.197,5.432,7.627c0,1.579,0.154,4.968,0.654,5.66h-0.848
				c-0.5-1.115-0.578-4.043-0.578-5.776c0-4.508-0.961-7.125-7.279-7.125h-10.363v12.901H161.029z M161.029,38.908h10.287
				c4.082,0,7.817-2.039,7.817-6.855c-0.038-3.89-2.194-6.202-7.434-6.202h-10.673v13.057H161.029z"/>
			<path fill="#0066AC" d="M208.408,25.082h1.271v27.5h-0.771V26.044h-0.076L197.16,52.582h-0.848l-11.67-26.538h-0.076v26.538
				h-0.771v-27.5h1.271l11.631,26.5h0.078L208.408,25.082z"/>
		</g>
	</g>
</g>
</svg>
